<svg id="svg" version="1.1" xmlns="http://www.w3.org/2000/svg" xmlns:xlink="http://www.w3.org/1999/xlink" width="400" height="398.5189756248072" viewBox="0, 0, 400,398.5189756248072"><g id="svgg"><path id="path0" d="M187.167 64.097 C 186.846 64.131,185.571 64.241,184.333 64.341 C 159.119 66.378,136.703 76.954,118.902 95.209 C 87.050 127.874,80.974 179.221,104.360 218.112 C 120.945 245.692,146.834 262.703,179.000 267.155 C 186.793 268.234,197.889 268.233,205.083 267.153 C 215.538 265.584,222.261 263.703,232.376 259.517 C 234.470 258.650,234.575 258.591,235.456 257.780 C 237.301 256.079,237.609 253.763,236.436 250.417 C 236.083 249.408,235.062 246.446,234.169 243.833 C 231.767 236.811,231.740 236.737,231.259 235.917 C 229.608 233.099,227.889 232.915,222.061 234.933 C 207.069 240.123,194.815 242.112,184.152 241.086 C 137.404 236.589,106.307 192.363,118.171 147.250 C 128.102 109.488,166.540 85.334,206.333 91.851 C 221.278 94.298,235.657 102.081,247.835 114.315 C 254.253 120.762,255.345 120.796,261.092 114.730 C 270.760 104.526,270.287 105.148,270.123 102.833 C 269.951 100.427,268.994 99.029,264.250 94.255 C 246.834 76.734,226.204 66.969,201.167 64.398 C 198.775 64.152,188.676 63.935,187.167 64.097 M217.406 158.086 C 197.789 159.378,180.821 166.141,165.921 178.605 C 161.325 182.451,160.661 183.569,161.432 186.165 C 161.775 187.323,161.592 187.055,166.315 193.299 C 172.971 202.099,173.335 202.230,179.000 197.842 C 190.189 189.175,200.394 184.040,210.452 182.016 C 247.284 174.604,282.698 199.365,287.900 236.167 C 288.476 240.241,288.559 241.443,288.561 245.750 C 288.563 250.081,288.484 251.220,287.898 255.333 C 284.069 282.186,261.807 305.191,234.283 310.736 C 219.179 313.779,203.153 311.157,189.027 303.334 C 183.930 300.511,182.542 301.200,179.293 308.167 C 177.658 311.674,176.452 314.245,175.683 315.862 C 173.918 319.577,175.400 321.499,182.956 325.289 C 224.012 345.883,273.095 332.173,297.365 293.333 C 298.485 291.542,298.630 291.294,300.008 288.816 C 313.828 263.971,314.434 232.570,301.591 206.833 C 285.708 175.004,252.501 155.776,217.406 158.086 " stroke="none" fill="#fbfbfb" fill-rule="evenodd"></path><path id="path1" d="M192.750 12.321 C 187.223 12.511,179.822 13.210,173.917 14.099 C 173.000 14.237,171.725 14.425,171.083 14.517 C 168.452 14.894,163.927 15.747,160.833 16.449 C 158.084 17.074,157.524 17.204,156.667 17.421 C 156.162 17.548,154.925 17.848,153.917 18.088 C 152.908 18.327,151.746 18.623,151.333 18.746 C 150.454 19.008,149.311 19.345,147.917 19.752 C 147.367 19.913,146.654 20.137,146.333 20.250 C 146.012 20.363,145.337 20.577,144.833 20.725 C 144.030 20.960,140.501 22.110,138.833 22.680 C 138.512 22.790,138.051 22.982,137.808 23.106 C 137.564 23.231,137.223 23.333,137.049 23.333 C 136.876 23.333,136.662 23.399,136.575 23.479 C 136.488 23.560,135.667 23.890,134.750 24.213 C 133.113 24.789,132.580 24.994,131.583 25.428 C 131.308 25.548,129.696 26.225,128.000 26.934 C 126.304 27.642,124.804 28.279,124.667 28.349 C 124.529 28.419,123.929 28.699,123.333 28.970 C 119.574 30.682,114.673 33.126,112.000 34.621 C 111.771 34.749,111.133 35.099,110.583 35.398 C 109.404 36.041,105.830 38.124,105.194 38.540 C 104.950 38.699,104.638 38.880,104.500 38.942 C 104.215 39.070,102.460 40.193,102.333 40.328 C 102.287 40.377,101.987 40.560,101.667 40.735 C 100.732 41.245,95.256 44.879,95.194 45.030 C 95.164 45.105,95.071 45.167,94.987 45.167 C 94.865 45.167,92.677 46.690,91.906 47.313 C 91.808 47.391,91.302 47.739,90.781 48.085 C 90.260 48.431,89.833 48.761,89.833 48.818 C 89.833 48.875,89.533 49.107,89.167 49.333 C 88.800 49.560,88.500 49.803,88.500 49.873 C 88.500 49.943,88.388 50.000,88.250 50.000 C 88.112 50.000,87.998 50.056,87.996 50.125 C 87.994 50.194,87.582 50.544,87.080 50.904 C 86.578 51.264,86.167 51.620,86.167 51.696 C 86.167 51.771,86.060 51.833,85.931 51.833 C 85.801 51.833,85.669 51.890,85.639 51.959 C 85.608 52.028,85.058 52.495,84.417 52.997 C 83.775 53.498,83.212 53.948,83.167 53.996 C 83.121 54.044,82.633 54.456,82.083 54.912 C 81.533 55.368,80.896 55.905,80.667 56.105 C 80.438 56.305,79.688 56.938,79.000 57.512 C 78.313 58.086,77.561 58.750,77.330 58.986 C 77.100 59.223,76.612 59.671,76.247 59.982 C 73.254 62.529,66.964 68.778,63.249 72.893 C 62.516 73.704,61.837 74.454,61.739 74.559 C 61.642 74.664,61.085 75.313,60.501 76.000 C 59.917 76.688,59.322 77.371,59.178 77.518 C 58.869 77.834,58.488 78.287,57.583 79.412 C 56.778 80.412,56.308 80.981,56.079 81.231 C 55.985 81.333,55.324 82.167,54.610 83.083 C 53.896 84.000,53.204 84.882,53.072 85.044 C 52.941 85.205,52.833 85.384,52.833 85.442 C 52.833 85.499,52.729 85.630,52.602 85.732 C 52.475 85.833,51.910 86.554,51.348 87.333 C 50.785 88.112,50.158 88.965,49.954 89.227 C 49.750 89.490,49.516 89.846,49.433 90.019 C 49.350 90.192,49.219 90.333,49.141 90.333 C 49.064 90.333,49.000 90.411,49.000 90.507 C 49.000 90.603,48.924 90.771,48.831 90.882 C 48.433 91.355,47.535 92.625,47.244 93.125 C 47.070 93.423,46.869 93.667,46.797 93.667 C 46.725 93.667,46.667 93.745,46.667 93.840 C 46.667 94.037,45.981 95.055,45.792 95.139 C 45.723 95.169,45.667 95.271,45.667 95.365 C 45.667 95.459,45.460 95.809,45.208 96.143 C 44.685 96.838,44.380 97.307,44.219 97.667 C 44.158 97.804,44.065 97.954,44.012 98.000 C 43.960 98.046,43.772 98.346,43.596 98.667 C 43.419 98.987,43.230 99.287,43.175 99.333 C 43.053 99.435,40.500 103.646,40.500 103.746 C 40.500 103.785,40.294 104.139,40.042 104.533 C 39.352 105.611,39.213 105.850,38.798 106.667 C 38.588 107.079,38.357 107.492,38.284 107.583 C 38.113 107.798,37.508 108.920,36.713 110.500 C 36.367 111.188,36.038 111.787,35.983 111.833 C 35.874 111.923,32.261 119.251,31.709 120.500 C 31.527 120.912,31.180 121.683,30.939 122.213 C 30.698 122.742,30.500 123.211,30.500 123.254 C 30.500 123.297,30.269 123.839,29.987 124.458 C 29.160 126.269,28.286 128.374,27.582 130.250 C 26.990 131.829,26.656 132.685,26.478 133.083 C 26.395 133.267,26.260 133.642,26.177 133.917 C 26.093 134.192,25.866 134.829,25.672 135.333 C 25.478 135.837,25.090 136.962,24.808 137.833 C 24.527 138.704,24.204 139.679,24.089 140.000 C 23.669 141.175,23.473 141.768,23.232 142.583 C 23.097 143.042,22.918 143.642,22.835 143.917 C 22.345 145.538,21.965 146.812,21.842 147.250 C 21.432 148.708,20.613 151.826,20.506 152.333 C 20.438 152.654,20.302 153.217,20.203 153.583 C 19.915 154.647,19.169 157.893,18.765 159.833 C 18.622 160.521,18.396 161.608,18.262 162.250 C 18.129 162.892,17.937 163.942,17.836 164.583 C 17.735 165.225,17.547 166.350,17.419 167.083 C 14.627 183.021,14.083 201.657,15.924 218.333 C 16.293 221.674,17.020 226.871,17.416 229.000 C 17.545 229.688,17.734 230.813,17.838 231.500 C 18.019 232.692,18.176 233.510,18.767 236.333 C 19.281 238.788,19.546 239.927,19.771 240.655 C 19.897 241.061,20.000 241.542,20.000 241.723 C 20.000 241.905,20.118 242.473,20.262 242.985 C 20.719 244.612,20.973 245.547,21.328 246.917 C 21.651 248.159,21.871 248.957,22.412 250.833 C 22.530 251.246,22.833 252.221,23.083 253.000 C 23.334 253.779,23.641 254.754,23.765 255.167 C 24.241 256.753,25.395 260.154,25.927 261.542 C 26.059 261.885,26.285 262.485,26.430 262.875 C 26.575 263.265,26.800 263.796,26.930 264.055 C 27.060 264.315,27.167 264.656,27.167 264.814 C 27.167 264.971,27.229 265.171,27.306 265.258 C 27.382 265.345,27.579 265.792,27.744 266.250 C 27.908 266.708,28.137 267.308,28.252 267.583 C 28.367 267.858,28.853 269.021,29.332 270.167 C 29.811 271.313,30.269 272.321,30.351 272.408 C 30.433 272.495,30.500 272.659,30.500 272.771 C 30.500 273.204,34.151 280.845,36.185 284.667 C 37.699 287.512,38.183 288.408,38.527 289.000 C 38.713 289.321,39.027 289.883,39.225 290.250 C 39.422 290.617,39.628 290.954,39.683 291.000 C 39.737 291.046,39.887 291.285,40.016 291.531 C 40.623 292.691,41.570 294.256,41.694 294.306 C 41.771 294.336,41.833 294.438,41.833 294.531 C 41.833 294.625,42.058 295.035,42.333 295.443 C 42.608 295.850,42.833 296.220,42.833 296.265 C 42.833 296.310,42.975 296.550,43.147 296.798 C 43.320 297.047,44.421 298.712,45.593 300.500 C 46.766 302.287,47.787 303.775,47.863 303.806 C 47.938 303.836,48.000 303.933,48.000 304.021 C 48.000 304.155,49.251 305.930,49.830 306.618 C 49.924 306.729,50.000 306.897,50.000 306.993 C 50.000 307.089,50.056 307.167,50.125 307.168 C 50.194 307.169,50.540 307.619,50.893 308.168 C 51.247 308.717,51.586 309.167,51.646 309.167 C 51.706 309.167,51.940 309.467,52.167 309.833 C 52.393 310.200,52.636 310.500,52.706 310.500 C 52.776 310.500,52.833 310.612,52.833 310.750 C 52.833 310.887,52.899 311.000,52.980 311.000 C 53.060 311.000,53.410 311.412,53.757 311.917 C 54.105 312.421,54.451 312.833,54.528 312.833 C 54.604 312.833,54.667 312.940,54.667 313.069 C 54.667 313.199,54.723 313.331,54.792 313.361 C 54.860 313.392,55.214 313.792,55.576 314.250 C 55.939 314.708,56.366 315.233,56.525 315.417 C 56.684 315.600,57.206 316.237,57.685 316.833 C 58.165 317.429,58.676 318.036,58.820 318.182 C 58.965 318.328,59.356 318.778,59.689 319.182 C 61.136 320.938,61.563 321.437,61.896 321.757 C 62.091 321.945,62.960 322.882,63.828 323.841 C 65.620 325.821,72.244 332.487,74.250 334.331 C 74.983 335.005,75.958 335.903,76.417 336.327 C 76.875 336.751,78.037 337.767,79.000 338.584 C 79.962 339.402,80.787 340.120,80.833 340.180 C 80.879 340.241,81.517 340.764,82.250 341.343 C 82.983 341.922,83.658 342.483,83.750 342.589 C 83.842 342.695,84.404 343.146,85.000 343.591 C 85.596 344.037,86.121 344.446,86.167 344.502 C 86.212 344.557,87.300 345.390,88.583 346.353 C 90.675 347.923,91.659 348.640,95.137 351.125 C 95.682 351.515,96.212 351.833,96.314 351.833 C 96.416 351.833,96.500 351.892,96.500 351.965 C 96.500 352.089,97.320 352.651,99.833 354.251 C 100.429 354.631,101.142 355.085,101.417 355.260 C 102.204 355.763,102.564 355.978,102.833 356.106 C 102.971 356.172,103.121 356.270,103.167 356.324 C 103.276 356.452,105.850 358.006,106.917 358.589 C 107.375 358.839,107.868 359.146,108.013 359.272 C 108.158 359.397,108.359 359.500,108.460 359.500 C 108.560 359.500,108.745 359.594,108.871 359.708 C 109.109 359.926,109.390 360.085,111.583 361.246 C 112.317 361.633,113.367 362.199,113.917 362.501 C 114.944 363.067,116.578 363.894,120.250 365.707 C 121.660 366.404,123.711 367.346,125.625 368.177 C 126.060 368.366,126.642 368.620,126.917 368.742 C 128.886 369.615,131.823 370.819,132.833 371.168 C 133.154 371.278,133.642 371.467,133.917 371.586 C 134.192 371.705,134.754 371.930,135.167 372.085 C 135.579 372.240,136.163 372.472,136.464 372.600 C 136.765 372.728,137.091 372.833,137.189 372.833 C 137.286 372.833,137.603 372.940,137.891 373.071 C 138.180 373.201,139.729 373.736,141.333 374.259 C 142.938 374.782,144.512 375.303,144.833 375.416 C 145.154 375.530,145.867 375.755,146.417 375.916 C 146.967 376.078,147.717 376.305,148.083 376.420 C 148.763 376.633,150.217 377.038,151.417 377.348 C 151.783 377.443,152.458 377.622,152.917 377.747 C 153.756 377.975,155.142 378.331,156.833 378.754 C 158.087 379.068,160.691 379.651,163.417 380.229 C 164.570 380.473,165.072 380.564,168.167 381.091 C 169.037 381.239,170.313 381.462,171.000 381.586 C 173.413 382.022,178.827 382.727,182.417 383.073 C 199.487 384.718,216.829 384.038,233.500 381.069 C 234.279 380.931,235.367 380.740,235.917 380.647 C 236.467 380.553,237.404 380.372,238.000 380.246 C 238.596 380.120,239.683 379.891,240.417 379.738 C 241.150 379.585,242.082 379.357,242.488 379.230 C 242.894 379.104,243.375 379.000,243.557 379.000 C 243.739 379.000,244.269 378.892,244.735 378.761 C 245.202 378.629,246.071 378.400,246.667 378.251 C 247.262 378.102,248.125 377.879,248.583 377.754 C 249.042 377.630,249.717 377.448,250.083 377.352 C 251.494 376.979,252.776 376.621,253.417 376.420 C 253.783 376.305,254.533 376.078,255.083 375.916 C 255.633 375.755,256.346 375.527,256.667 375.410 C 256.987 375.294,258.300 374.857,259.583 374.440 C 263.381 373.207,263.583 373.136,267.708 371.563 C 268.893 371.112,269.037 371.055,270.417 370.499 C 272.345 369.722,273.268 369.325,275.042 368.514 C 275.661 368.231,276.210 368.000,276.261 368.000 C 276.635 368.000,288.890 361.974,289.167 361.654 C 289.212 361.601,289.475 361.446,289.750 361.310 C 290.224 361.075,291.443 360.399,292.917 359.553 C 293.283 359.343,293.696 359.121,293.833 359.060 C 293.971 358.999,294.196 358.858,294.333 358.746 C 294.471 358.635,294.958 358.339,295.417 358.089 C 296.157 357.684,298.224 356.428,299.467 355.627 C 299.714 355.467,300.029 355.285,300.167 355.221 C 300.402 355.112,300.863 354.812,303.222 353.234 C 303.757 352.876,304.319 352.508,304.472 352.417 C 304.625 352.325,304.787 352.212,304.833 352.167 C 304.879 352.121,305.517 351.675,306.250 351.175 C 306.983 350.676,307.608 350.207,307.639 350.134 C 307.669 350.060,307.765 350.000,307.852 350.000 C 308.008 350.000,315.019 344.838,315.454 344.403 C 315.577 344.280,316.013 343.939,316.422 343.645 C 316.832 343.351,317.167 343.048,317.167 342.972 C 317.167 342.896,317.273 342.833,317.403 342.833 C 317.533 342.833,317.664 342.768,317.694 342.688 C 317.725 342.608,318.350 342.069,319.083 341.492 C 319.817 340.914,320.454 340.389,320.500 340.324 C 320.546 340.260,321.146 339.740,321.833 339.170 C 322.521 338.599,323.383 337.855,323.750 337.516 C 324.117 337.177,325.242 336.159,326.250 335.252 C 327.258 334.346,328.583 333.112,329.193 332.511 C 329.804 331.909,330.704 331.035,331.193 330.569 C 332.232 329.579,337.655 323.925,338.602 322.844 C 338.958 322.437,339.438 321.905,339.667 321.660 C 340.288 320.997,341.807 319.246,342.220 318.715 C 342.419 318.459,342.751 318.091,342.958 317.898 C 343.164 317.704,343.333 317.487,343.333 317.416 C 343.333 317.345,343.438 317.203,343.566 317.102 C 343.694 317.000,344.750 315.717,345.913 314.250 C 347.076 312.783,348.172 311.414,348.347 311.207 C 348.523 311.000,348.667 310.763,348.667 310.679 C 348.667 310.596,348.728 310.503,348.802 310.472 C 348.877 310.442,349.438 309.742,350.049 308.917 C 350.660 308.092,351.237 307.326,351.330 307.215 C 351.424 307.105,351.500 306.936,351.500 306.840 C 351.500 306.745,351.557 306.667,351.627 306.667 C 351.697 306.667,351.940 306.367,352.167 306.000 C 352.393 305.633,352.636 305.333,352.706 305.333 C 352.776 305.333,352.833 305.250,352.833 305.149 C 352.833 305.048,353.058 304.681,353.333 304.333 C 353.608 303.986,353.833 303.625,353.833 303.532 C 353.833 303.438,353.890 303.336,353.958 303.306 C 354.095 303.245,354.308 302.949,355.724 300.857 C 356.242 300.091,356.667 299.432,356.667 299.392 C 356.667 299.352,356.810 299.117,356.986 298.868 C 357.161 298.620,357.780 297.663,358.361 296.742 C 358.941 295.821,359.511 294.921,359.625 294.742 C 359.740 294.563,359.901 294.267,359.984 294.083 C 360.066 293.900,360.313 293.487,360.533 293.167 C 360.753 292.846,360.986 292.471,361.052 292.333 C 361.117 292.196,361.314 291.858,361.490 291.583 C 361.853 291.016,362.432 289.990,362.805 289.250 C 362.944 288.975,363.101 288.712,363.154 288.667 C 363.251 288.583,363.960 287.266,364.906 285.417 C 365.187 284.867,365.455 284.379,365.503 284.333 C 365.593 284.246,368.434 278.523,369.102 277.083 C 369.315 276.625,369.785 275.612,370.147 274.833 C 370.508 274.054,371.007 272.929,371.255 272.333 C 371.502 271.737,371.836 270.950,371.996 270.583 C 372.157 270.217,372.420 269.579,372.581 269.167 C 372.743 268.754,372.970 268.192,373.087 267.917 C 373.203 267.642,373.377 267.229,373.474 267.000 C 373.650 266.582,374.144 265.326,374.622 264.083 C 374.763 263.717,374.974 263.192,375.090 262.917 C 375.207 262.642,375.419 262.042,375.562 261.583 C 375.705 261.125,376.205 259.662,376.673 258.333 C 377.140 257.004,377.586 255.692,377.664 255.417 C 377.741 255.142,377.896 254.654,378.008 254.333 C 378.264 253.603,378.562 252.638,378.832 251.667 C 379.067 250.822,379.399 249.651,379.754 248.417 C 380.728 245.024,381.718 241.118,382.162 238.917 C 382.272 238.367,382.462 237.467,382.583 236.917 C 383.809 231.341,385.037 223.752,385.496 218.917 C 385.592 217.908,385.778 215.996,385.910 214.667 C 387.209 201.599,386.658 183.209,384.570 170.000 C 383.876 165.608,383.468 163.391,382.574 159.167 C 382.429 158.479,382.234 157.542,382.140 157.083 C 382.047 156.625,381.870 155.837,381.747 155.333 C 381.624 154.829,381.397 153.892,381.244 153.250 C 380.885 151.746,380.237 149.312,379.758 147.667 C 379.525 146.865,379.265 145.968,378.573 143.583 C 378.334 142.758,378.042 141.821,377.925 141.500 C 377.807 141.179,377.574 140.467,377.407 139.917 C 377.240 139.367,376.900 138.354,376.651 137.667 C 376.402 136.979,375.883 135.517,375.498 134.417 C 375.113 133.317,374.703 132.192,374.588 131.917 C 374.473 131.642,374.264 131.117,374.123 130.750 C 373.499 129.122,372.782 127.381,372.567 126.974 C 372.438 126.731,372.333 126.445,372.333 126.339 C 372.333 126.233,372.142 125.719,371.908 125.198 C 371.674 124.677,371.381 124.025,371.258 123.750 C 371.134 123.475,370.757 122.650,370.420 121.917 C 370.084 121.183,369.747 120.433,369.672 120.250 C 369.471 119.756,365.227 111.244,364.604 110.083 C 362.802 106.731,360.805 103.263,360.636 103.194 C 360.561 103.164,360.500 103.072,360.500 102.990 C 360.500 102.839,358.505 99.487,358.324 99.333 C 358.270 99.287,358.174 99.138,358.111 99.000 C 358.048 98.862,357.848 98.525,357.667 98.250 C 357.485 97.975,357.249 97.581,357.142 97.375 C 357.034 97.169,356.884 97.000,356.807 97.000 C 356.730 97.000,356.667 96.920,356.667 96.822 C 356.667 96.724,356.479 96.399,356.250 96.098 C 356.021 95.798,355.833 95.471,355.833 95.373 C 355.833 95.275,355.777 95.169,355.708 95.139 C 355.561 95.073,354.833 94.057,354.833 93.916 C 354.833 93.863,354.756 93.729,354.662 93.618 C 354.567 93.507,354.195 93.004,353.833 92.500 C 353.472 91.996,353.099 91.493,353.005 91.382 C 352.911 91.271,352.833 91.103,352.833 91.007 C 352.833 90.911,352.758 90.833,352.667 90.833 C 352.575 90.833,352.500 90.758,352.500 90.666 C 352.500 90.490,347.761 84.035,347.422 83.750 C 347.313 83.658,346.891 83.133,346.485 82.583 C 346.079 82.033,345.586 81.396,345.390 81.167 C 344.543 80.177,343.709 79.179,343.167 78.506 C 342.411 77.569,341.534 76.559,340.958 75.963 C 340.706 75.702,340.500 75.450,340.500 75.403 C 340.500 75.356,340.331 75.152,340.124 74.950 C 339.917 74.749,339.456 74.246,339.099 73.833 C 336.012 70.263,328.832 63.083,325.168 59.900 C 324.756 59.543,324.200 59.037,323.931 58.776 C 323.663 58.516,322.800 57.766,322.014 57.110 C 321.228 56.453,320.322 55.679,320.001 55.388 C 319.680 55.097,319.042 54.576,318.583 54.230 C 318.125 53.885,317.712 53.558,317.667 53.504 C 317.621 53.450,317.208 53.108,316.750 52.744 C 316.292 52.381,315.879 52.040,315.833 51.988 C 315.787 51.935,315.152 51.448,314.422 50.904 C 313.692 50.361,312.971 49.796,312.820 49.648 C 312.669 49.500,312.311 49.240,312.023 49.070 C 311.735 48.900,311.500 48.703,311.500 48.631 C 311.500 48.559,311.387 48.500,311.250 48.500 C 311.112 48.500,311.000 48.443,311.000 48.373 C 311.000 48.303,310.700 48.060,310.333 47.833 C 309.967 47.607,309.667 47.380,309.667 47.330 C 309.667 47.280,309.423 47.097,309.125 46.924 C 308.827 46.751,308.158 46.285,307.638 45.888 C 307.118 45.491,306.618 45.167,306.527 45.167 C 306.436 45.167,306.336 45.106,306.306 45.032 C 306.228 44.845,304.727 43.833,304.526 43.833 C 304.435 43.833,304.336 43.773,304.306 43.699 C 304.252 43.569,301.497 41.731,299.367 40.404 C 298.790 40.044,298.115 39.620,297.867 39.461 C 297.619 39.302,297.267 39.092,297.083 38.995 C 296.682 38.783,296.310 38.556,295.378 37.955 C 294.991 37.705,294.633 37.500,294.583 37.500 C 294.534 37.500,294.214 37.324,293.872 37.110 C 293.281 36.739,292.101 36.069,290.843 35.392 C 290.528 35.222,290.190 35.022,290.093 34.948 C 289.664 34.618,280.327 29.937,278.000 28.885 C 277.496 28.657,276.971 28.414,276.833 28.346 C 276.696 28.277,275.196 27.639,273.500 26.928 C 271.804 26.217,270.192 25.533,269.917 25.408 C 269.138 25.055,267.299 24.371,266.790 24.244 C 266.537 24.181,266.289 24.063,266.239 23.982 C 266.188 23.900,265.983 23.831,265.782 23.828 C 265.581 23.825,265.271 23.713,265.093 23.578 C 264.915 23.443,264.640 23.333,264.482 23.333 C 264.323 23.333,263.981 23.229,263.722 23.102 C 263.462 22.975,262.987 22.783,262.667 22.676 C 259.748 21.702,257.469 20.960,256.000 20.507 C 255.037 20.210,253.950 19.874,253.583 19.759 C 253.217 19.645,252.504 19.431,252.000 19.283 C 251.496 19.135,250.708 18.904,250.250 18.770 C 249.792 18.635,248.592 18.328,247.583 18.088 C 246.575 17.849,245.338 17.548,244.833 17.421 C 244.329 17.294,243.410 17.072,242.792 16.928 C 238.991 16.045,237.905 15.822,233.083 14.937 C 232.350 14.803,231.150 14.609,230.417 14.508 C 229.683 14.406,228.371 14.216,227.500 14.085 C 217.279 12.553,204.646 11.912,192.750 12.321 M199.750 64.161 C 203.445 64.499,207.667 65.047,210.083 65.503 C 218.328 67.058,226.750 69.598,232.803 72.354 C 233.383 72.618,233.894 72.833,233.939 72.833 C 234.101 72.833,239.103 75.315,240.417 76.046 C 243.042 77.509,243.431 77.731,244.478 78.372 C 251.555 82.698,258.165 87.958,264.362 94.193 C 271.861 101.737,272.097 103.281,266.637 109.044 C 265.053 110.716,263.232 112.646,262.591 113.333 C 255.327 121.120,254.495 121.181,247.758 114.423 C 237.051 103.685,226.860 97.571,212.500 93.271 C 211.239 92.893,210.220 92.675,206.583 92.005 C 186.110 88.234,162.969 93.789,145.917 106.567 C 133.073 116.192,122.395 131.443,118.834 145.250 C 118.763 145.525,118.515 146.462,118.282 147.333 C 107.520 187.646,132.083 229.049,172.667 239.002 C 173.446 239.193,174.371 239.426,174.723 239.519 C 175.075 239.613,175.788 239.763,176.307 239.853 C 176.825 239.944,177.887 240.128,178.667 240.264 C 191.144 242.438,204.861 240.783,221.000 235.157 C 228.877 232.411,230.693 232.929,232.429 238.417 C 232.545 238.783,233.212 240.733,233.912 242.750 C 237.361 252.693,237.239 252.289,237.238 253.833 C 237.235 257.165,236.115 258.192,229.705 260.737 C 208.096 269.319,186.192 270.425,163.565 264.079 C 139.068 257.208,117.653 240.727,104.558 218.667 C 101.879 214.155,100.669 211.808,98.371 206.667 C 97.116 203.861,94.620 196.905,93.914 194.250 C 92.478 188.848,92.052 186.895,91.367 182.583 C 89.397 170.167,89.637 158.226,92.104 146.000 C 92.556 143.763,92.787 142.784,93.618 139.583 C 96.633 127.979,102.281 116.110,109.560 106.083 C 111.601 103.272,113.047 101.475,115.998 98.085 C 118.291 95.451,124.742 89.296,127.595 87.022 C 128.322 86.442,129.093 85.819,129.308 85.637 C 132.030 83.340,138.603 78.981,143.083 76.502 C 145.047 75.415,150.192 72.833,150.394 72.833 C 150.440 72.833,150.951 72.616,151.530 72.350 C 154.659 70.914,161.812 68.387,164.917 67.621 C 165.100 67.576,165.850 67.374,166.583 67.174 C 167.317 66.973,168.217 66.746,168.583 66.670 C 168.950 66.594,169.962 66.373,170.833 66.178 C 174.678 65.319,180.581 64.489,185.083 64.175 C 186.550 64.072,188.050 63.961,188.417 63.927 C 189.662 63.810,197.741 63.978,199.750 64.161 M232.809 158.320 C 234.308 158.505,235.996 158.737,236.559 158.836 C 237.122 158.935,238.221 159.126,239.000 159.261 C 239.779 159.397,240.717 159.577,241.083 159.661 C 241.450 159.746,242.313 159.939,243.000 160.091 C 244.405 160.401,244.971 160.555,248.167 161.499 C 276.311 169.816,300.280 194.165,307.560 221.833 C 308.325 224.739,308.481 225.357,308.717 226.417 C 311.840 240.406,311.664 255.329,308.221 268.333 C 307.991 269.204,307.696 270.317,307.566 270.807 C 307.280 271.883,305.592 276.953,305.170 278.000 C 302.915 283.599,300.868 287.748,298.084 292.361 C 297.992 292.513,297.671 293.051,297.371 293.555 C 286.938 311.079,267.292 325.835,246.667 331.637 C 232.849 335.525,216.821 336.039,203.917 333.010 C 201.166 332.364,199.830 332.000,196.417 330.968 C 191.235 329.401,182.077 325.347,178.223 322.915 C 174.996 320.879,174.282 318.466,175.903 315.083 C 176.879 313.047,177.849 310.995,178.620 309.333 C 181.914 302.234,183.179 300.991,186.186 301.904 C 187.050 302.166,187.226 302.250,190.833 304.132 C 193.169 305.350,196.326 306.790,198.083 307.440 C 199.221 307.860,202.724 309.030,203.250 309.166 C 203.525 309.237,204.463 309.480,205.333 309.707 C 211.035 311.192,216.426 311.842,223.017 311.841 C 226.725 311.840,230.229 311.503,233.167 310.864 C 233.579 310.775,234.517 310.571,235.250 310.411 C 270.561 302.734,293.752 268.737,287.430 233.917 C 282.427 206.357,260.494 185.398,232.500 181.425 C 221.644 179.884,209.261 181.368,199.917 185.330 C 197.011 186.561,195.001 187.569,191.083 189.755 C 188.360 191.276,183.100 194.838,179.667 197.488 C 173.735 202.066,172.726 201.955,168.401 196.250 C 161.174 186.718,161.466 187.146,161.203 185.700 C 160.809 183.533,161.420 182.367,164.250 179.881 C 173.116 172.093,183.869 165.852,194.489 162.331 C 200.249 160.422,205.742 159.242,213.167 158.319 C 217.793 157.744,228.156 157.744,232.809 158.320 " stroke="none" fill="#1c8cb4" fill-rule="evenodd"></path><path id="path2" d="M270.209 103.083 C 270.211 103.450,270.245 103.580,270.285 103.373 C 270.324 103.166,270.323 102.866,270.281 102.706 C 270.239 102.547,270.207 102.717,270.209 103.083 M138.406 112.875 L 137.917 113.417 138.458 112.927 C 138.756 112.658,139.000 112.414,139.000 112.385 C 139.000 112.257,138.862 112.370,138.406 112.875 M136.740 114.542 L 136.250 115.083 136.792 114.594 C 137.090 114.325,137.333 114.081,137.333 114.052 C 137.333 113.923,137.196 114.037,136.740 114.542 M90.052 166.417 C 90.053 166.967,90.084 167.172,90.121 166.872 C 90.158 166.572,90.157 166.122,90.119 165.872 C 90.081 165.622,90.051 165.867,90.052 166.417 M310.895 246.667 C 310.895 247.629,310.923 248.023,310.956 247.542 C 310.990 247.060,310.990 246.273,310.956 245.792 C 310.923 245.310,310.895 245.704,310.895 246.667 M189.460 268.118 C 189.668 268.158,189.968 268.156,190.127 268.115 C 190.286 268.073,190.117 268.040,189.750 268.042 C 189.383 268.044,189.253 268.078,189.460 268.118 M194.294 268.118 C 194.501 268.158,194.801 268.156,194.960 268.115 C 195.120 268.073,194.950 268.040,194.583 268.042 C 194.217 268.044,194.086 268.078,194.294 268.118 M219.627 334.951 C 219.834 334.991,220.134 334.990,220.294 334.948 C 220.453 334.906,220.283 334.874,219.917 334.875 C 219.550 334.877,219.420 334.911,219.627 334.951 M224.127 334.951 C 224.334 334.991,224.634 334.990,224.794 334.948 C 224.953 334.906,224.783 334.874,224.417 334.875 C 224.050 334.877,223.920 334.911,224.127 334.951 " stroke="none" fill="#73a6ca" fill-rule="evenodd"></path><path id="path3" d="M123.406 90.708 L 122.917 91.250 123.458 90.760 C 123.756 90.491,124.000 90.248,124.000 90.219 C 124.000 90.090,123.862 90.203,123.406 90.708 M260.667 90.719 C 260.667 90.748,260.910 90.991,261.208 91.260 L 261.750 91.750 261.260 91.208 C 260.804 90.703,260.667 90.590,260.667 90.719 M188.708 90.948 C 188.869 90.990,189.131 90.990,189.292 90.948 C 189.452 90.906,189.321 90.872,189.000 90.872 C 188.679 90.872,188.548 90.906,188.708 90.948 M196.960 90.951 C 197.168 90.991,197.468 90.990,197.627 90.948 C 197.786 90.906,197.617 90.874,197.250 90.875 C 196.883 90.877,196.753 90.911,196.960 90.951 M119.913 94.042 L 118.417 95.583 119.958 94.087 C 121.390 92.697,121.576 92.500,121.455 92.500 C 121.430 92.500,120.736 93.194,119.913 94.042 M266.500 96.583 C 266.811 96.904,267.103 97.167,267.149 97.167 C 267.195 97.167,266.978 96.904,266.667 96.583 C 266.356 96.263,266.064 96.000,266.018 96.000 C 265.972 96.000,266.189 96.263,266.500 96.583 M266.991 108.458 L 266.417 109.083 267.042 108.509 C 267.623 107.974,267.743 107.833,267.616 107.833 C 267.588 107.833,267.307 108.115,266.991 108.458 M264.409 111.208 L 263.750 111.917 264.458 111.258 C 265.117 110.645,265.243 110.500,265.117 110.500 C 265.090 110.500,264.771 110.819,264.409 111.208 M139.575 111.708 L 138.917 112.417 139.625 111.758 C 140.284 111.145,140.410 111.000,140.284 111.000 C 140.257 111.000,139.938 111.319,139.575 111.708 M244.500 111.052 C 244.500 111.081,244.744 111.325,245.042 111.594 L 245.583 112.083 245.094 111.542 C 244.638 111.037,244.500 110.923,244.500 111.052 M261.740 114.042 L 261.250 114.583 261.792 114.094 C 262.297 113.638,262.410 113.500,262.281 113.500 C 262.252 113.500,262.009 113.744,261.740 114.042 M135.740 115.542 L 135.250 116.083 135.792 115.594 C 136.090 115.325,136.333 115.081,136.333 115.052 C 136.333 114.923,136.196 115.037,135.740 115.542 M248.500 115.052 C 248.500 115.081,248.744 115.325,249.042 115.594 L 249.583 116.083 249.094 115.542 C 248.638 115.037,248.500 114.923,248.500 115.052 M219.708 157.948 C 219.869 157.990,220.131 157.990,220.292 157.948 C 220.452 157.906,220.321 157.872,220.000 157.872 C 219.679 157.872,219.548 157.906,219.708 157.948 M225.875 157.948 C 226.035 157.990,226.298 157.990,226.458 157.948 C 226.619 157.906,226.487 157.872,226.167 157.872 C 225.846 157.872,225.715 157.906,225.875 157.948 M216.875 158.115 C 217.035 158.157,217.298 158.157,217.458 158.115 C 217.619 158.073,217.487 158.039,217.167 158.039 C 216.846 158.039,216.715 158.073,216.875 158.115 M228.708 158.115 C 228.869 158.157,229.131 158.157,229.292 158.115 C 229.452 158.073,229.321 158.039,229.000 158.039 C 228.679 158.039,228.548 158.073,228.708 158.115 M115.705 162.500 C 115.705 162.821,115.740 162.952,115.782 162.792 C 115.823 162.631,115.823 162.369,115.782 162.208 C 115.740 162.048,115.705 162.179,115.705 162.500 M115.555 166.917 C 115.555 167.558,115.586 167.800,115.622 167.455 C 115.658 167.109,115.657 166.584,115.620 166.288 C 115.583 165.992,115.554 166.275,115.555 166.917 M115.705 171.333 C 115.705 171.654,115.740 171.785,115.782 171.625 C 115.823 171.465,115.823 171.202,115.782 171.042 C 115.740 170.881,115.705 171.012,115.705 171.333 M222.292 180.791 C 223.048 180.822,224.285 180.822,225.042 180.791 C 225.798 180.760,225.179 180.735,223.667 180.735 C 222.154 180.735,221.535 180.760,222.292 180.791 M284.667 183.417 C 285.257 184.012,285.778 184.500,285.824 184.500 C 285.870 184.500,285.424 184.012,284.833 183.417 C 284.243 182.821,283.722 182.333,283.676 182.333 C 283.630 182.333,284.076 182.821,284.667 183.417 M170.833 199.250 C 171.144 199.571,171.436 199.833,171.482 199.833 C 171.528 199.833,171.311 199.571,171.000 199.250 C 170.689 198.929,170.397 198.667,170.351 198.667 C 170.305 198.667,170.522 198.929,170.833 199.250 M134.833 216.552 C 134.833 216.581,135.077 216.825,135.375 217.094 L 135.917 217.583 135.427 217.042 C 134.971 216.537,134.833 216.423,134.833 216.552 M118.417 236.833 C 118.868 237.292,119.275 237.667,119.321 237.667 C 119.367 237.667,119.035 237.292,118.583 236.833 C 118.132 236.375,117.725 236.000,117.679 236.000 C 117.633 236.000,117.965 236.375,118.417 236.833 M121.917 240.333 C 122.275 240.700,122.605 241.000,122.651 241.000 C 122.697 241.000,122.441 240.700,122.083 240.333 C 121.725 239.967,121.395 239.667,121.349 239.667 C 121.303 239.667,121.559 239.967,121.917 240.333 M186.208 241.282 C 186.369 241.323,186.631 241.323,186.792 241.282 C 186.952 241.240,186.821 241.205,186.500 241.205 C 186.179 241.205,186.048 241.240,186.208 241.282 M193.042 241.282 C 193.202 241.323,193.465 241.323,193.625 241.282 C 193.785 241.240,193.654 241.205,193.333 241.205 C 193.012 241.205,192.881 241.240,193.042 241.282 M310.709 241.750 C 310.711 242.117,310.745 242.247,310.785 242.040 C 310.824 241.832,310.823 241.532,310.781 241.373 C 310.739 241.214,310.707 241.383,310.709 241.750 M288.567 245.833 C 288.567 247.254,288.593 247.835,288.624 247.125 C 288.655 246.415,288.655 245.252,288.624 244.542 C 288.593 243.831,288.567 244.412,288.567 245.833 M310.709 251.583 C 310.711 251.950,310.745 252.080,310.785 251.873 C 310.824 251.666,310.823 251.366,310.781 251.206 C 310.739 251.047,310.707 251.217,310.709 251.583 M235.573 257.708 L 235.083 258.250 235.625 257.760 C 236.130 257.304,236.243 257.167,236.115 257.167 C 236.086 257.167,235.842 257.410,235.573 257.708 M186.377 267.953 C 186.631 267.991,187.006 267.990,187.211 267.951 C 187.416 267.911,187.208 267.880,186.750 267.881 C 186.292 267.882,186.124 267.915,186.377 267.953 M197.211 267.953 C 197.464 267.991,197.839 267.990,198.044 267.951 C 198.249 267.911,198.042 267.880,197.583 267.881 C 197.125 267.882,196.957 267.915,197.211 267.953 M191.208 268.123 C 191.735 268.156,192.598 268.156,193.125 268.123 C 193.652 268.090,193.221 268.063,192.167 268.063 C 191.112 268.063,190.681 268.090,191.208 268.123 M271.073 289.875 L 270.583 290.417 271.125 289.927 C 271.630 289.471,271.743 289.333,271.615 289.333 C 271.586 289.333,271.342 289.577,271.073 289.875 M284.580 309.375 L 282.917 311.083 284.625 309.420 C 285.565 308.505,286.333 307.736,286.333 307.711 C 286.333 307.591,286.125 307.788,284.580 309.375 M219.544 311.953 C 219.797 311.991,220.172 311.990,220.377 311.951 C 220.582 311.911,220.375 311.880,219.917 311.881 C 219.458 311.882,219.291 311.915,219.544 311.953 M225.625 311.951 C 225.831 311.991,226.169 311.991,226.375 311.951 C 226.581 311.911,226.412 311.879,226.000 311.879 C 225.588 311.879,225.419 311.911,225.625 311.951 M229.375 334.615 C 229.535 334.657,229.798 334.657,229.958 334.615 C 230.119 334.573,229.987 334.539,229.667 334.539 C 229.346 334.539,229.215 334.573,229.375 334.615 M221.292 334.956 C 221.773 334.990,222.560 334.990,223.042 334.956 C 223.523 334.923,223.129 334.895,222.167 334.895 C 221.204 334.895,220.810 334.923,221.292 334.956 " stroke="none" fill="#94bcd4" fill-rule="evenodd"></path><path id="path4" d="M190.634 63.958 C 191.578 63.988,193.078 63.987,193.967 63.957 C 194.856 63.928,194.083 63.903,192.250 63.903 C 190.417 63.904,189.689 63.928,190.634 63.958 M262.750 92.667 C 263.108 93.033,263.438 93.333,263.484 93.333 C 263.530 93.333,263.275 93.033,262.917 92.667 C 262.559 92.300,262.228 92.000,262.182 92.000 C 262.137 92.000,262.392 92.300,262.750 92.667 M265.167 95.083 C 265.478 95.404,265.770 95.667,265.815 95.667 C 265.861 95.667,265.644 95.404,265.333 95.083 C 265.022 94.763,264.730 94.500,264.685 94.500 C 264.639 94.500,264.856 94.763,265.167 95.083 M266.073 109.542 L 265.583 110.083 266.125 109.594 C 266.630 109.138,266.743 109.000,266.615 109.000 C 266.586 109.000,266.342 109.244,266.073 109.542 M246.826 113.375 C 247.517 114.111,247.667 114.243,247.667 114.118 C 247.667 114.091,247.310 113.735,246.875 113.326 L 246.083 112.583 246.826 113.375 M260.740 115.208 L 260.250 115.750 260.792 115.260 C 261.297 114.804,261.410 114.667,261.281 114.667 C 261.252 114.667,261.009 114.910,260.740 115.208 M254.294 119.285 C 254.501 119.324,254.801 119.323,254.960 119.281 C 255.120 119.239,254.950 119.207,254.583 119.209 C 254.217 119.211,254.086 119.245,254.294 119.285 M90.059 164.083 C 90.059 164.908,90.087 165.267,90.122 164.880 C 90.157 164.493,90.157 163.818,90.123 163.380 C 90.088 162.942,90.060 163.258,90.059 164.083 M90.058 168.667 C 90.058 169.446,90.087 169.765,90.122 169.375 C 90.157 168.985,90.157 168.348,90.122 167.958 C 90.087 167.569,90.058 167.887,90.058 168.667 M219.375 180.948 C 219.535 180.990,219.798 180.990,219.958 180.948 C 220.119 180.906,219.987 180.872,219.667 180.872 C 219.346 180.872,219.215 180.906,219.375 180.948 M227.208 180.948 C 227.369 180.990,227.631 180.990,227.792 180.948 C 227.952 180.906,227.821 180.872,227.500 180.872 C 227.179 180.872,227.048 180.906,227.208 180.948 M269.500 199.750 C 270.091 200.346,270.611 200.833,270.657 200.833 C 270.703 200.833,270.257 200.346,269.667 199.750 C 269.076 199.154,268.555 198.667,268.510 198.667 C 268.464 198.667,268.909 199.154,269.500 199.750 M137.417 219.167 C 137.961 219.717,138.444 220.167,138.490 220.167 C 138.535 220.167,138.128 219.717,137.583 219.167 C 137.039 218.617,136.556 218.167,136.510 218.167 C 136.465 218.167,136.872 218.617,137.417 219.167 M188.625 241.290 C 189.290 241.322,190.377 241.322,191.042 241.290 C 191.706 241.259,191.162 241.233,189.833 241.233 C 188.504 241.233,187.960 241.259,188.625 241.290 M288.372 242.167 C 288.372 242.487,288.406 242.619,288.448 242.458 C 288.490 242.298,288.490 242.035,288.448 241.875 C 288.406 241.715,288.372 241.846,288.372 242.167 M310.888 243.917 C 310.889 244.558,310.919 244.800,310.955 244.455 C 310.991 244.109,310.990 243.584,310.954 243.288 C 310.917 242.992,310.887 243.275,310.888 243.917 M310.887 249.333 C 310.887 249.929,310.917 250.173,310.954 249.875 C 310.991 249.577,310.991 249.090,310.954 248.792 C 310.917 248.494,310.887 248.737,310.887 249.333 M288.372 249.500 C 288.372 249.821,288.406 249.952,288.448 249.792 C 288.490 249.631,288.490 249.369,288.448 249.208 C 288.406 249.048,288.372 249.179,288.372 249.500 M237.217 253.833 C 237.217 254.338,237.248 254.544,237.286 254.292 C 237.324 254.040,237.324 253.627,237.286 253.375 C 237.248 253.123,237.217 253.329,237.217 253.833 M188.044 268.120 C 188.297 268.158,188.672 268.157,188.877 268.117 C 189.082 268.078,188.875 268.046,188.417 268.048 C 187.958 268.049,187.791 268.081,188.044 268.120 M195.544 268.120 C 195.797 268.158,196.172 268.157,196.377 268.117 C 196.582 268.078,196.375 268.046,195.917 268.048 C 195.458 268.049,195.291 268.081,195.544 268.120 M269.077 291.875 L 268.250 292.750 269.125 291.923 C 269.938 291.154,270.076 291.000,269.952 291.000 C 269.926 291.000,269.532 291.394,269.077 291.875 M221.292 311.954 C 221.590 311.991,222.077 311.991,222.375 311.954 C 222.673 311.917,222.429 311.887,221.833 311.887 C 221.237 311.887,220.994 311.917,221.292 311.954 M223.455 311.954 C 223.750 311.990,224.275 311.991,224.621 311.955 C 224.967 311.919,224.725 311.889,224.083 311.888 C 223.442 311.887,223.159 311.917,223.455 311.954 " stroke="none" fill="#549cc4" fill-rule="evenodd"></path></g></svg>